<?xml version="1.0" encoding="UTF-8"?>
<svg xmlns="http://www.w3.org/2000/svg" xmlns:xlink="http://www.w3.org/1999/xlink" width="35pt" height="35pt" viewBox="0 0 35 35" version="1.1">
<defs>
<clipPath id="clip1">
  <path d="M 0 21 L 35 21 L 35 35 L 0 35 Z M 0 21 "/>
</clipPath>
<clipPath id="clip2">
  <path d="M 35 17.5 C 35 27.164062 27.164062 35 17.5 35 C 7.835938 35 0 27.164062 0 17.5 C 0 7.835938 7.835938 0 17.5 0 C 27.164062 0 35 7.835938 35 17.5 Z M 35 17.5 "/>
</clipPath>
<clipPath id="clip3">
  <path d="M 10 21 L 25 21 L 25 27 L 10 27 Z M 10 21 "/>
</clipPath>
<clipPath id="clip4">
  <path d="M 35 17.5 C 35 27.164062 27.164062 35 17.5 35 C 7.835938 35 0 27.164062 0 17.5 C 0 7.835938 7.835938 0 17.5 0 C 27.164062 0 35 7.835938 35 17.5 Z M 35 17.5 "/>
</clipPath>
<clipPath id="clip5">
  <path d="M 22.050781 25.164062 C 22.050781 26.566406 23.695312 26.984375 24.535156 27.195312 C 27.195312 27.894531 32.515625 29.261719 32.515625 29.261719 C 33.636719 29.644531 34.511719 30.484375 35 31.570312 L 35 35 L 0 35 L 0 31.570312 C 0.453125 30.484375 1.363281 29.644531 2.484375 29.261719 C 2.484375 29.261719 7.804688 27.894531 10.464844 27.195312 C 11.304688 26.984375 12.949219 26.566406 12.949219 25.164062 C 12.949219 23.765625 12.949219 21.351562 12.949219 21.351562 L 22.050781 21.351562 C 22.050781 21.351562 22.050781 23.765625 22.050781 25.164062 Z M 22.050781 25.164062 "/>
</clipPath>
</defs>
<g id="surface1">
<path style=" stroke:none;fill-rule:nonzero;fill:rgb(96.078431%,93.333333%,89.803922%);fill-opacity:1;" d="M 35 17.5 C 35 27.164062 27.164062 35 17.5 35 C 7.835938 35 0 27.164062 0 17.5 C 0 7.835938 7.835938 0 17.5 0 C 27.164062 0 35 7.835938 35 17.5 Z M 35 17.5 "/>
<g clip-path="url(#clip1)" clip-rule="nonzero">
<g clip-path="url(#clip2)" clip-rule="nonzero">
<path style=" stroke:none;fill-rule:nonzero;fill:rgb(90.196078%,75.686275%,61.176471%);fill-opacity:1;" d="M 22.050781 25.164062 C 22.050781 26.566406 23.695312 26.984375 24.535156 27.195312 C 27.195312 27.894531 32.515625 29.261719 32.515625 29.261719 C 33.636719 29.644531 34.511719 30.484375 35 31.570312 L 35 35 L 0 35 L 0 31.570312 C 0.453125 30.484375 1.363281 29.644531 2.484375 29.261719 C 2.484375 29.261719 7.804688 27.894531 10.464844 27.195312 C 11.304688 26.984375 12.949219 26.566406 12.949219 25.164062 C 12.949219 23.765625 12.949219 21.351562 12.949219 21.351562 L 22.050781 21.351562 C 22.050781 21.351562 22.050781 23.765625 22.050781 25.164062 Z M 22.050781 25.164062 "/>
</g>
</g>
<g clip-path="url(#clip3)" clip-rule="nonzero">
<g clip-path="url(#clip4)" clip-rule="nonzero">
<g clip-path="url(#clip5)" clip-rule="nonzero">
<path style=" stroke:none;fill-rule:nonzero;fill:rgb(83.137255%,69.019608%,54.901961%);fill-opacity:1;" d="M 17.570312 3.851562 C 17.605469 3.851562 17.605469 3.851562 17.640625 3.851562 C 18.796875 3.851562 20.511719 3.921875 21.628906 4.550781 C 22.785156 5.214844 24.183594 6.511719 24.605469 8.785156 C 25.445312 13.578125 23.871094 21.175781 22.398438 23.625 C 21 25.96875 18.96875 26.84375 17.675781 26.914062 C 17.675781 26.914062 17.640625 26.914062 17.640625 26.914062 C 17.605469 26.914062 17.605469 26.914062 17.570312 26.914062 C 17.535156 26.914062 17.535156 26.914062 17.5 26.914062 C 17.5 26.914062 17.464844 26.914062 17.464844 26.914062 C 16.171875 26.84375 14.140625 25.96875 12.738281 23.625 C 11.269531 21.175781 9.695312 13.578125 10.535156 8.785156 C 10.953125 6.511719 12.355469 5.214844 13.511719 4.550781 C 14.628906 3.921875 16.34375 3.851562 17.5 3.851562 C 17.535156 3.851562 17.535156 3.851562 17.570312 3.851562 Z M 17.570312 3.851562 "/>
</g>
</g>
</g>
<path style=" stroke:none;fill-rule:nonzero;fill:rgb(94.901961%,80.784314%,64.705882%);fill-opacity:1;" d="M 17.359375 5.601562 C 24.046875 5.601562 24.605469 10.429688 24.640625 10.886719 C 25.023438 15.050781 23.589844 20.71875 22.261719 22.679688 C 20.859375 24.746094 18.828125 25.515625 17.535156 25.585938 C 17.464844 25.585938 17.464844 25.585938 17.429688 25.585938 C 17.394531 25.585938 17.394531 25.585938 17.359375 25.585938 C 16.03125 25.480469 14 24.710938 12.601562 22.644531 C 11.269531 20.683594 9.835938 15.015625 10.21875 10.816406 C 10.253906 10.394531 10.675781 5.601562 17.359375 5.601562 Z M 17.359375 5.601562 "/>
</g>
</svg>
